<svg xmlns="http://www.w3.org/2000/svg" viewBox="120 40 380 360" fill="white"><path d="M449.2,217.1c2.5,0,4.7,0,7.3,0c-0.3,5.1-0.3,10.1-0.8,15.1c-1.5,14.2-4.3,28-9.1,41.5c-6.6,18.3-16.4,34.5-29.1,49.1c-23.1,26.6-52.2,43.3-86.4,50.9c-30.7,6.8-60.8,4.3-90.2-7.2c-31.6-12.3-57.1-32.3-75.9-60.6c-10.1-15.2-16.6-31.9-21.3-49.5c-4.4-16.4-5.9-33.1-4.7-49.9c1.8-26.4,10.1-50.7,24.6-72.9c19.5-29.9,45.7-51.6,79.1-64.2c17.9-6.8,36.4-9.6,55.5-9.5c20,0.2,39.4,3.5,58,10.8c22.5,8.8,41.6,22.6,58.2,40c4.3,4.6,8.2,9.7,11.8,14.8c1.4,2,2.3,5,2.3,7.5c-0.1,5.1-6.5,8.2-11.2,5.3c-2.6-1.6-4.9-3.9-6.8-6.3c-13.9-18.1-30.2-33.5-50.6-44.1c-14.1-7.3-29-11.6-44.7-13.5c-10.8-1.3-21.6-1.1-32.4-0.4c-0.7,0-1.4,0.2-2.1,0.3c-1.3,95.9-1.8,191.7,0.1,287.6c7.6,2,15.4,2.1,23.2,1.7c23.2-1.1,44.8-8.1,65-19.3c26.9-14.9,46.2-36.8,59.4-64.4c6.6-13.9,11.1-28.5,12.9-43.8c0.2-1.6,0.3-3.3,0.4-5.2c-1.2,0-2.3,0-3.4,0c-35.1,0-70.2,0.1-105.3,0c-6.9,0-13.8-0.6-20.6-1c-3.7-0.2-5.1-1.4-5.7-4.4c-0.6-3.1,0.6-6.3,3.4-7.4c2.3-0.9,5-1.4,7.5-1.4c16,0,32,0.3,47.9,0.4C393.3,217.2,421.1,217.1,449.2,217.1z"/></svg>
